<svg xmlns="http://www.w3.org/2000/svg" viewBox="0 0 153.26 58.88"><path d="M49,24.51H34.34V39.2a14.56,14.56,0,0,1-12.46-6.83A14.72,14.72,0,1,1,49,24.51Z"/><path d="M34.32,0V4.85a19.54,19.54,0,0,0-16,8.35,18.88,18.88,0,0,0-3.58,12.08,19.19,19.19,0,0,0,2.87,9.48,19.65,19.65,0,0,0,16.73,9.39v5c-8.86-.33-15.85-4-20.69-11.45A24.5,24.5,0,0,1,34.32,0Z"/><path d="M0,24.52H4.87a29,29,0,0,0,8.65,20.79A29,29,0,0,0,34.32,54v4.9A34.38,34.38,0,0,1,0,24.52Z"/><path d="M60.72,19.86a5.54,5.54,0,0,1,2-.8,4.61,4.61,0,0,1,3.51.58,4.29,4.29,0,0,1,1.54,1.93,10.09,10.09,0,0,1,.43,7,5.92,5.92,0,0,1-4.6,4.24,10.34,10.34,0,0,1-3.33.11,13.46,13.46,0,0,1-3.48-.76.29.29,0,0,1-.23-.33q0-9.27,0-18.56c0-.3.1-.42.4-.41.61,0,1.23,0,1.84,0a1.76,1.76,0,0,1,1.83,1.83c0,.42,0,.85,0,1.27,0,1.2,0,2.4,0,3.6Zm0,10a5.06,5.06,0,0,0,.52.08,3.44,3.44,0,0,0,1.53-.11A2.24,2.24,0,0,0,64,28.26a9,9,0,0,0,.28-3.3,4.83,4.83,0,0,0-.37-1.68,1.41,1.41,0,0,0-1.56-.93A2.51,2.51,0,0,0,60.9,23a.5.5,0,0,0-.18.42c0,2,0,4.06,0,6.09Z"/><path d="M124.89,32.93c-.42-.06-.81-.09-1.18-.18a2.17,2.17,0,0,1-1.66-1.69c-.53-2-1.06-3.95-1.6-5.93L119,19.72s0-.1,0-.17a5.2,5.2,0,0,1,2.41-.56,3.56,3.56,0,0,1,.91.12,1.66,1.66,0,0,1,1.22,1.37c.35,1.33.65,2.67,1,4a48.6,48.6,0,0,1,1,5,1.88,1.88,0,0,0,.12.3l.09,0a1.39,1.39,0,0,0,.06-.19q1-4.43,2-8.83c.09-.41.19-.81.26-1.22a.33.33,0,0,1,.32-.3,8.71,8.71,0,0,1,2.79,0c.24,0,.47.09.7.15a.4.4,0,0,1,.3.5c-1.17,4.43-2.32,8.86-3.51,13.28a10.83,10.83,0,0,1-1.43,3.18,5,5,0,0,1-3.67,2.27,9.7,9.7,0,0,1-4.41-.39c-.08,0-.19-.14-.19-.21a4.48,4.48,0,0,1,.7-2.69c.09-.14.17-.15.33-.12a16.06,16.06,0,0,0,2.06.33,2.53,2.53,0,0,0,2.72-1.85C124.76,33.38,124.82,33.16,124.89,32.93Z"/><path d="M98.31,27.33a2.85,2.85,0,0,0,.69,2,2.08,2.08,0,0,0,1.53.59,8,8,0,0,0,2.78-.46,5.2,5.2,0,0,0,.72-.26.28.28,0,0,1,.38.11,4.3,4.3,0,0,1,.91,2.15.32.32,0,0,1-.15.25A7.79,7.79,0,0,1,101.9,33a8.7,8.7,0,0,1-4.12-.15,4.93,4.93,0,0,1-3.31-3.53,11.4,11.4,0,0,1-.11-6.05,5.23,5.23,0,0,1,3.43-4,5.93,5.93,0,0,1,6.27,1.11,5.08,5.08,0,0,1,1.56,3.16,9.54,9.54,0,0,1-.19,3.57c-.05.21-.13.28-.36.28H98.31Zm0-2.95h3.57a3.27,3.27,0,0,0-.46-1.94,1.67,1.67,0,0,0-2.69.11A4.76,4.76,0,0,0,98.27,24.38Z"/><path d="M84.88,27.33a3.16,3.16,0,0,0,.4,1.59,2.15,2.15,0,0,0,2.12,1,9.2,9.2,0,0,0,3.14-.71.35.35,0,0,1,.47.12,4.4,4.4,0,0,1,.87,2.12c0,.08-.07.2-.14.25A8.25,8.25,0,0,1,88.06,33a8.6,8.6,0,0,1-3.39-.13,4.87,4.87,0,0,1-3.59-3.5,11,11,0,0,1,0-6.66,5.24,5.24,0,0,1,3.3-3.54,6.52,6.52,0,0,1,3.42-.27,5.07,5.07,0,0,1,3.81,2.72,5.62,5.62,0,0,1,.64,2.29A10.43,10.43,0,0,1,92,27c-.06.22-.14.31-.39.3H84.88Zm3.52-2.94a3.67,3.67,0,0,0-.27-1.62,1.65,1.65,0,0,0-2.64-.52,3.24,3.24,0,0,0-.65,2.14Z"/><path d="M117.79,29.21a4.17,4.17,0,0,1,.38,2A1.52,1.52,0,0,1,117,32.55a4.73,4.73,0,0,1-1.13.15H108c-.17,0-.26,0-.3-.22-.12-.51-.27-1-.36-1.53a2,2,0,0,1,.37-1.6c1.55-2.06,3-4.19,4.7-6.14.23-.27.48-.53.72-.79a1.23,1.23,0,0,0,.11-.23,1.32,1.32,0,0,0-.26-.05c-.73.06-1.46.15-2.19.17-1,0-2,0-3,0a5.17,5.17,0,0,1-.14-1.8c0-.37.12-.72.17-1.09,0-.18.1-.21.27-.21,1.22,0,2.45,0,3.67,0,1.76,0,3.51,0,5.27,0,.19,0,.28.05.33.25.14.57.32,1.14.44,1.72a2,2,0,0,1-.4,1.63c-1.5,2-3,3.94-4.51,5.91-.21.27-.46.52-.69.78a.67.67,0,0,0-.08.17c.06,0,.11.07.17.07,1.3-.07,2.6-.11,3.89-.21A12.45,12.45,0,0,0,117.79,29.21Z"/><path d="M75,21.41c.22-.36.41-.73.66-1.06a3.35,3.35,0,0,1,3.17-1.3c.44,0,.88.12,1.38.19-.07.49-.12,1-.2,1.42A7.78,7.78,0,0,1,79.21,23c-.08.14-.14.18-.31.14A3.51,3.51,0,0,0,77.11,23a2.63,2.63,0,0,0-1.57,1.26.54.54,0,0,0,0,.29V32.7a13.51,13.51,0,0,1-4.21,0V24.19a4.72,4.72,0,0,0-.29-2,9.19,9.19,0,0,0-.6-.93.43.43,0,0,1-.08-.28,5.37,5.37,0,0,1,1-1.76.57.57,0,0,1,.61-.2,3.75,3.75,0,0,1,3,2.23C74.92,21.32,75,21.37,75,21.41Z"/><path d="M107.21,43.49l-.14,2.93h-.9c0-.68.09-1.34.14-2s.11-1.23.15-1.85c0-.18.07-.25.24-.25h.81a.25.25,0,0,1,.27.24c.15.7.31,1.39.47,2.09a1.75,1.75,0,0,0,.07.26c.13-.6.26-1.13.38-1.66,0-.22.12-.45.16-.67s.11-.26.28-.26h1c.11,1.39.21,2.72.32,4.12-.28,0-.54,0-.81,0,0,0-.09-.12-.1-.19,0-.87-.08-1.73-.13-2.6a.19.19,0,0,0-.06-.15c-.09.35-.18.71-.26,1.06s-.18.73-.26,1.09a.22.22,0,0,1-.24.2c-.77.06-.77.06-1-.68-.14-.56-.27-1.12-.41-1.68Z"/><path d="M78.07,43.56v2.88c-.23,0-.48,0-.73,0,0,0-.13-.09-.13-.14V42.34c.34,0,.67,0,1,0,.07,0,.16.11.19.19.38.88.76,1.75,1.13,2.62l0,.11V43.05c0-.67.16-.8.86-.72v4.1c-.34,0-.69,0-1,0-.06,0-.13-.12-.16-.2-.37-.84-.73-1.68-1.09-2.53Z"/><path d="M146.42,42.38l.18-.05c.77-.12.88,0,1.18.65s.66,1.52,1,2.28c0-.11,0-.22,0-.33,0-.63,0-1.27,0-1.91s.22-.81.87-.68v4.09c-.34,0-.69,0-1,0-.06,0-.14-.13-.18-.22l-1.11-2.57-.05-.1v2.89h-.83Z"/><path d="M86.9,42.33c.32,0,.64,0,.95,0a.34.34,0,0,1,.21.2c.38.86.75,1.72,1.12,2.57a.28.28,0,0,0,.11.16c0-.31,0-.62,0-.93,0-.46,0-.92,0-1.38s.13-.65.64-.65h.22v4.11c-.34,0-.68,0-1,0-.07,0-.15-.12-.19-.2q-.59-1.32-1.17-2.67v2.87H86.9Z"/><path d="M114.68,42.37l.3,0c.76-.06.76-.06,1.07.64s.66,1.54,1,2.29v-1.1c0-.39,0-.78,0-1.17,0-.55.13-.68.68-.67h.18v4.11h-1s-.11-.1-.14-.16l-1.11-2.57-.07-.16v2.89h-.85Z"/><path d="M59.81,42.3c.69,0,1.36,0,2,.1a1,1,0,0,1,.87,1A1.2,1.2,0,0,1,62,44.7c.57.33.44,1.06.89,1.49a.79.79,0,0,1-.7.27c-.25,0-.36-.18-.43-.38s-.17-.46-.25-.69c-.15-.41-.32-.51-.79-.43v1.46h-.93Zm.94.72v1.17c.33,0,.65.07.89-.2a.69.69,0,0,0,0-.72C61.44,42.93,61.09,43.06,60.75,43Z"/><path d="M129.8,44.31a2.38,2.38,0,0,1-.54,1.71,1.74,1.74,0,0,1-2.9-.75,3,3,0,0,1,.19-2.21,1.65,1.65,0,0,1,1.8-.77,1.59,1.59,0,0,1,1.34,1.27C129.75,43.85,129.78,44.14,129.8,44.31Zm-1,.1c0-.3,0-.57-.11-.82a.67.67,0,0,0-.49-.57.7.7,0,0,0-.9.62,3.29,3.29,0,0,0,0,1.56.67.67,0,0,0,.65.58.68.68,0,0,0,.69-.53A6.69,6.69,0,0,0,128.82,44.41Z"/><path d="M142.13,44.22a6.13,6.13,0,0,1,.38-1.17,1.54,1.54,0,0,1,1.62-.78,1.52,1.52,0,0,1,1.41,1,2.83,2.83,0,0,1-.16,2.46,1.6,1.6,0,0,1-1.7.72,1.5,1.5,0,0,1-1.35-1.12C142.23,45,142.21,44.66,142.13,44.22Zm2.64.15c-.06-.3-.08-.6-.16-.88a.6.6,0,0,0-.46-.47.69.69,0,0,0-.89.6,3.29,3.29,0,0,0,0,1.59.67.67,0,0,0,.65.57.69.69,0,0,0,.69-.54A8.32,8.32,0,0,0,144.77,44.37Z"/><path d="M94.18,42.69c-.07.15-.11.27-.17.38-.17.28-.24.3-.54.16l-.29-.11c-.8-.23-1.32.09-1.39.92a3.44,3.44,0,0,0,.11,1.15,1,1,0,0,0,1.3.53.21.21,0,0,0,.07-.14c0-.21,0-.42,0-.65a2.82,2.82,0,0,1-.43,0c-.11,0-.25-.13-.27-.22a1.55,1.55,0,0,1,0-.52s.08,0,.13,0c.29,0,.58,0,.87,0a.5.5,0,0,1,.54.57c0,.46,0,.92,0,1.38,0,.17-.06.25-.22.27a12.39,12.39,0,0,1-1.6.16,1.43,1.43,0,0,1-1.36-1,2.74,2.74,0,0,1,0-2,1.94,1.94,0,0,1,2.56-1.07C93.72,42.47,93.93,42.58,94.18,42.69Z"/><path d="M133.44,42.32h.46a.44.44,0,0,1,.46.42,2.34,2.34,0,0,1,0,.38c0,.64,0,1.29,0,1.94,0,.48.21.69.65.68s.63-.21.63-.69c0-.79,0-1.59,0-2.39v-.31h.94c0,1,0,1.91,0,2.85a1.34,1.34,0,0,1-1.43,1.3,1.74,1.74,0,0,1-1.33-.4,1.24,1.24,0,0,1-.41-.88C133.43,44.27,133.44,43.31,133.44,42.32Z"/><path d="M73,46.41c.19-.58.36-1.12.53-1.65.25-.74.5-1.48.73-2.22a.27.27,0,0,1,.26-.22c.86-.09.87-.08,1.14.74.31,1,.64,2,1,3,0,.1,0,.2.08.32a.77.77,0,0,1-.84,0,2.52,2.52,0,0,1-.43-.8H74.27a.22.22,0,0,0-.15.12,3.33,3.33,0,0,0-.16.51.25.25,0,0,1-.31.24Zm1.4-1.61h.87l-.44-1.61Z"/><path d="M99,46.45c.32-1,.59-1.82.87-2.67.14-.41.28-.82.4-1.24a.26.26,0,0,1,.29-.22h0c.82-.06.82-.06,1.07.72.36,1.09.71,2.19,1.06,3.28-.38.25-1,.24-1.11-.38,0-.32-.2-.4-.49-.37a5,5,0,0,1-.77,0c-.13,0-.19,0-.22.17a5.6,5.6,0,0,1-.17.54.3.3,0,0,1-.15.16C99.51,46.46,99.26,46.45,99,46.45Zm2.29-1.64-.44-1.62-.43,1.62Z"/><path d="M151.66,46.5a2.68,2.68,0,0,1-1.32-.34c-.15-.08-.17-.16-.11-.3s.05-.13.08-.19c.17-.32.19-.3.52-.18a5.39,5.39,0,0,0,1,.24.35.35,0,0,0,.41-.27A.38.38,0,0,0,152,45c-.18-.1-.38-.18-.57-.27l-.53-.25a1.05,1.05,0,0,1-.59-1,1.13,1.13,0,0,1,.68-1,2.32,2.32,0,0,1,2.07.12s.08.1.07.15a1.17,1.17,0,0,1-.09.32c-.09.2-.2.29-.46.18a2.86,2.86,0,0,0-.83-.18.35.35,0,0,0-.44.26c-.07.23.09.34.27.42s.65.27,1,.43a1.2,1.2,0,0,1,.56,1.68,1.46,1.46,0,0,1-1.22.67Z"/><path d="M122.77,46l.34-.65c.36.12.65.23,1,.32a1.12,1.12,0,0,0,.41,0,.36.36,0,0,0,.37-.28.37.37,0,0,0-.18-.44,1.38,1.38,0,0,0-.27-.14l-.72-.32a1.09,1.09,0,0,1-.71-1.22,1.24,1.24,0,0,1,1-1,2.57,2.57,0,0,1,1.7.23.25.25,0,0,1,.11.19,1.12,1.12,0,0,1-.1.31c-.09.19-.19.28-.44.18a2.55,2.55,0,0,0-.78-.19.4.4,0,0,0-.51.27c-.06.26.15.36.34.44s.63.26.93.42a1.19,1.19,0,0,1,.43,1.82,1.45,1.45,0,0,1-1,.5A2.67,2.67,0,0,1,122.77,46Z"/><path d="M65.73,44.77H64.41v.86h1.76c.09.55-.1.8-.63.81s-1,0-1.51,0-.56-.18-.56-.52c0-1.15,0-2.3,0-3.44a.6.6,0,0,1,0-.12h2.45s.11.08.15.13a.33.33,0,0,1,0,.1c0,.51,0,.55-.5.55h-1.1l-.07,0V44h1.31Z"/><path d="M66.89,42.37h2.59c0,.08,0,.16,0,.23,0,.48,0,.54-.5.54H68c-.15,0-.2,0-.2.19s0,.42,0,.66h1.07c.21,0,.31,0,.29.26,0,0,0,.1,0,.15,0,.37,0,.37-.37.37h-1v.86h1.75c.1.51-.09.79-.58.81s-1.07,0-1.61,0a.5.5,0,0,1-.53-.54V42.48A.65.65,0,0,1,66.89,42.37Z"/><path d="M97.18,45.17c0,.35,0,.69,0,1s-.06.25-.25.26c-.71,0-.71,0-.71-.67V42.32H97a7.6,7.6,0,0,1,1.07,0c.74.13,1.09.67,1,1.53a1.28,1.28,0,0,1-1.23,1.23Zm0-.75c.34,0,.69.08.86-.29a.84.84,0,0,0-.07-.89c-.2-.28-.5-.19-.79-.2Z"/><path d="M114,45.64c.07.51-.11.77-.58.79s-1.09,0-1.64,0a.45.45,0,0,1-.5-.47c0-1.11,0-2.22,0-3.34,0-.07,0-.15,0-.24h2.59a2,2,0,0,1,0,.26c0,.47,0,.5-.49.5h-1.19V44c.34,0,.7,0,1.05,0s.31.08.29.29,0,.31,0,.49H112.2v.87Z"/><path d="M84,45.29l0,0c.48.38.46.6-.06.89a2.44,2.44,0,0,1-1.35.3,1.31,1.31,0,0,1-1.17-.78,2.76,2.76,0,0,1,.11-2.79,1.69,1.69,0,0,1,2.58-.15,1.38,1.38,0,0,1,.26.61.54.54,0,0,1-.8.59s-.08-.11-.09-.18,0-.28-.09-.42a.52.52,0,0,0-.48-.35.53.53,0,0,0-.57.25,1.28,1.28,0,0,0-.16.45,6.42,6.42,0,0,0,0,1.24.75.75,0,0,0,1.11.63C83.52,45.52,83.73,45.4,84,45.29Z"/><path d="M57.58,43.16V44h1.27v.78H57.58v1.65h-1V42.37h2.55c.2.61-.09.82-.54.79S57.94,43.16,57.58,43.16Z"/><path d="M102.71,42.44c.19,0,.35-.1.51-.13a.49.49,0,0,1,.56.34c.18.46.35.92.52,1.39,0,.05,0,.1.06.19.21-.54.43-1,.59-1.56a.43.43,0,0,1,.54-.35l.5.07c-.22.53-.41,1-.63,1.51a3.77,3.77,0,0,0-.49,2.54c-.33,0-.6,0-.87,0,0,0-.09-.07-.12-.12a.12.12,0,0,1,0-.1,3.76,3.76,0,0,0-.47-2.15C103.16,43.55,103,43,102.71,42.44Z"/><path d="M139.06,46.42h-1V43.14h-.81c-.15,0-.2,0-.22-.2-.05-.54,0-.58.5-.58h2.17c.16,0,.35-.07.35.22s-.07.51-.34.55h-.68Z"/><path d="M119.43,43.14h-1v-.77h3a2.8,2.8,0,0,1,0,.4.35.35,0,0,1-.36.36h-.69v.3c0,.92,0,1.84,0,2.76,0,.21-.08.27-.27.26h-.67Z"/><path d="M71.25,45.63H72.8c.08.48-.1.76-.55.79a11.69,11.69,0,0,1-1.45,0,.48.48,0,0,1-.51-.53c0-1.13,0-2.27,0-3.41,0-.13,0-.18.18-.19.57,0,.78.15.79.73Z"/><path d="M133,45.62c0,.59-.15.81-.69.82s-.83,0-1.25,0-.58-.19-.58-.58V42.47s0-.09,0-.14a3.47,3.47,0,0,1,.56,0,.42.42,0,0,1,.36.43c0,.44,0,.88,0,1.32v1.53Z"/><path d="M141.49,46.42h-.94V42.35h.94Z"/><path d="M85,42.35H86v.81c0,1,0,2,0,3,0,.22-.08.29-.28.28s-.44,0-.67,0Z"/></svg>